<?xml version="1.0" standalone="no"?>
<!DOCTYPE svg PUBLIC "-//W3C//DTD SVG 20010904//EN"
 "http://www.w3.org/TR/2001/REC-SVG-20010904/DTD/svg10.dtd">
<svg version="1.0" xmlns="http://www.w3.org/2000/svg"
 width="150.000000pt" height="150.000000pt" viewBox="0 0 150.000000 150.000000"
 preserveAspectRatio="xMidYMid meet">
<metadata>
Created by potrace 1.14, written by Peter Selinger 2001-2017
</metadata>
<g transform="translate(0.000000,150.000000) scale(0.100000,-0.100000)"
fill="#000000" stroke="none">
<path d="M544 1470 c-240 -63 -434 -244 -510 -477 -27 -82 -29 -99 -29 -248 0
-156 1 -162 33 -250 27 -73 33 -103 32 -162 l-1 -73 45 0 46 0 0 -50 0 -50 58
0 c50 -1 65 -6 117 -40 64 -43 134 -72 229 -97 45 -11 96 -14 210 -11 137 4
159 8 233 35 188 68 328 193 416 368 82 165 95 412 31 589 -15 39 -29 86 -31
104 -3 17 -11 32 -17 32 -7 0 -27 20 -44 45 -26 37 -32 56 -32 95 l0 50 -49 0
c-40 0 -59 7 -102 36 -71 48 -147 82 -238 105 -101 26 -297 25 -397 -1z"/>
</g>
</svg>
